<svg width="45" height="44" viewBox="0 0 45 44" fill="none" xmlns="http://www.w3.org/2000/svg">
<g clip-path="url(#clip0_1_1916)">
<path d="M15.369 25.3596L14.2364 26.4345C14.0764 26.5865 13.9863 26.795 13.9863 27.013V27.4717C13.9863 27.9169 14.3555 28.2779 14.811 28.2779H21.5743C22.0304 28.2779 22.3993 27.9169 22.3993 27.4717V26.8779C22.3993 26.4327 22.0304 26.0715 21.5743 26.0715H17.8374L17.9404 25.9789C20.3828 23.6781 22.1114 21.8672 22.1114 19.5092C22.1114 17.624 20.8583 15.7217 18.0578 15.7217C16.8353 15.7217 15.638 16.1053 14.6863 16.8015C14.3772 17.0282 14.2699 17.4345 14.429 17.7791L14.6371 18.2289C14.7381 18.4477 14.933 18.611 15.17 18.6747C15.4056 18.7383 15.6598 18.6953 15.8609 18.558C16.4729 18.1402 17.1028 17.9281 17.7339 17.9281C18.9622 17.9281 19.5847 18.5252 19.5847 19.6947C19.5683 21.2794 18.2239 22.7021 15.369 25.3596Z" fill="#9F3C3C"/>
<path d="M27.6963 15.9181C27.6743 15.9161 27.652 15.9153 27.6301 15.9153H27.3782C27.1085 15.9153 26.8563 16.0441 26.7022 16.2597L21.6511 23.3276C21.5543 23.4631 21.5025 23.6244 21.5025 23.7895V24.3561C21.5025 24.8015 21.8715 25.1625 22.327 25.1625H26.9389V27.4716C26.9389 27.9168 27.3079 28.2779 27.7633 28.2779H28.5508C29.006 28.2779 29.3757 27.9168 29.3757 27.4716V25.1625H30.1887C30.6442 25.1625 31.0136 24.8015 31.0136 24.3561V23.8325C31.0136 23.3875 30.6442 23.0263 30.1887 23.0263H29.3757V16.7217C29.3757 16.2766 29.006 15.9154 28.5508 15.9154H27.7633C27.7408 15.9154 27.7182 15.9163 27.6963 15.9181ZM26.9389 23.0263H24.4486C25.0812 22.1281 26.163 20.5865 26.9389 19.4473V23.0263Z" fill="#9F3C3C"/>
<path d="M22.531 40.512C12.8251 40.512 4.92851 32.791 4.92851 23.3007C4.92851 14.3142 12.0093 6.91557 21.0017 6.15493V8.89851C21.0017 9.09341 21.1117 9.27255 21.2875 9.36407C21.3671 9.40565 21.4543 9.42601 21.5412 9.42601C21.6463 9.42601 21.7515 9.39588 21.842 9.33631L28.2132 5.15084C28.3625 5.0529 28.4519 4.88869 28.4519 4.7129C28.4519 4.53725 28.3625 4.3729 28.2132 4.27496L21.842 0.089494C21.6766 -0.0191886 21.4633 -0.0300708 21.2874 0.0618699C21.1116 0.153532 21.0016 0.33267 21.0016 0.527433V2.6556C10.04 3.42461 1.36121 12.3897 1.36121 23.3006C1.36121 34.7142 10.8581 43.9998 22.5309 43.9998C27.9352 43.9998 33.0802 42.0088 37.0181 38.3936L34.5766 35.8508C31.3025 38.8567 27.0248 40.512 22.531 40.512Z" fill="#9F3C3C"/>
<path d="M40.6015 12.513C39.8723 11.3467 39.0194 10.2455 38.0676 9.24048L35.4501 11.6101C36.2423 12.4465 36.9515 13.3627 37.5585 14.3328L40.6015 12.513Z" fill="#9F3C3C"/>
<path d="M39.973 20.9633L43.5078 20.4941C43.3192 19.1352 42.9906 17.7913 42.531 16.4995L39.1619 17.6451C39.5434 18.7178 39.8162 19.8342 39.973 20.9633Z" fill="#9F3C3C"/>
<path d="M34.6727 6.34214C33.5248 5.55485 32.293 4.87778 31.0114 4.32935L29.5814 7.52467C30.6464 7.98047 31.6703 8.54328 32.6244 9.1976L34.6727 6.34214Z" fill="#9F3C3C"/>
<path d="M36.1293 34.2304L38.8836 36.4469C39.7745 35.3884 40.5601 34.2402 41.2183 33.0341L38.0714 31.3918C37.5241 32.3947 36.8707 33.3498 36.1293 34.2304Z" fill="#9F3C3C"/>
<path d="M40.0816 24.6316C39.9928 25.7696 39.7875 26.9007 39.4719 27.9929L42.9045 28.9419C43.2849 27.6269 43.5317 26.266 43.6388 24.8974L40.0816 24.6316Z" fill="#9F3C3C"/>
</g>
<defs>
<clipPath id="clip0_1_1916">
<rect width="45" height="44" fill="white"/>
</clipPath>
</defs>
</svg>
