<svg width="44" height="44" viewBox="0 0 44 44" fill="none" xmlns="http://www.w3.org/2000/svg">
<path d="M39.6 13.2H4.4C1.96977 13.2 0 15.1696 0 17.6V37.4C0 39.8302 1.96977 41.8 4.4 41.8H39.6C42.0302 41.8 44 39.8302 44 37.4V17.6C44 15.1696 42.0302 13.2 39.6 13.2ZM41.8 37.4C41.8 38.6129 40.8129 39.6 39.6 39.6H4.4C3.18708 39.6 2.2 38.6129 2.2 37.4V17.6C2.2 16.387 3.18708 15.4 4.4 15.4H39.6C40.8129 15.4 41.8 16.387 41.8 17.6V37.4Z" fill="#9F3C3C"/>
<path d="M33.6908 4.74168C32.6635 2.53876 30.0461 1.58614 27.8432 2.61352L9.85831 11H15.0635L28.7732 4.60753C29.8725 4.09491 31.1845 4.5723 31.697 5.67161L34.1822 11H36.6095L33.6908 4.74168Z" fill="#9F3C3C"/>
<path d="M13.1999 17.6001H6.59987C5.38472 17.6001 4.39987 18.5849 4.39987 19.8001V24.2001C4.39987 25.4152 5.38472 26.4001 6.59987 26.4001H13.1999C14.415 26.4001 15.3999 25.4152 15.3999 24.2001V19.8001C15.3999 18.5849 14.415 17.6001 13.1999 17.6001ZM13.1999 24.2001H6.59987V19.8001H13.1999V24.2001Z" fill="#9F3C3C"/>
<path d="M26.3999 33H4.39987V35.2H26.3999V33Z" fill="#9F3C3C"/>
<path d="M36.3001 30.8C35.4509 30.8 34.6846 31.13 34.1001 31.6566C33.5157 31.13 32.7494 30.8 31.9001 30.8C30.0778 30.8 28.6001 32.2777 28.6001 34.1C28.6001 35.9224 30.0778 37.4001 31.9001 37.4001C32.7494 37.4001 33.5157 37.0701 34.1001 36.5435C34.6846 37.0701 35.4509 37.4001 36.3001 37.4001C38.1224 37.4001 39.6001 35.9224 39.6001 34.1C39.6001 32.2777 38.1224 30.8 36.3001 30.8ZM31.9001 35.2001C31.2937 35.2001 30.8001 34.7065 30.8001 34.1C30.8001 33.4936 31.2937 33 31.9001 33C32.5066 33 33.0001 33.4936 33.0001 34.1C33.0001 34.7065 32.5066 35.2001 31.9001 35.2001ZM36.3001 35.2001C35.6937 35.2001 35.2001 34.7065 35.2001 34.1C35.2001 33.4936 35.6937 33 36.3001 33C36.9066 33 37.4001 33.4936 37.4001 34.1C37.4001 34.7065 36.9066 35.2001 36.3001 35.2001Z" fill="#9F3C3C"/>
</svg>
