<svg width="44" height="44" viewBox="0 0 44 44" fill="none" xmlns="http://www.w3.org/2000/svg">
<path d="M40.9198 24.6587L39.7804 20.101C40.0919 20.0348 40.3257 19.7584 40.3257 19.4273V18.6925C40.3257 17.097 39.0276 15.799 37.4321 15.799H32.2422V14.2833C32.2422 13.4981 31.6035 12.8595 30.8184 12.8595H21.1681L27.0325 10.5137C27.3858 10.3724 27.5576 9.97145 27.4163 9.61816C27.275 9.26495 26.8743 9.09299 26.5207 9.23436L21.7191 11.155C23.1822 10.2162 24.6299 9.18297 25.181 8.46041C26.2539 7.0537 25.9822 5.0364 24.5755 3.96347C23.1687 2.89045 21.1515 3.16227 20.0785 4.56899C19.2946 5.59697 18.2603 8.48542 17.5908 10.5208C16.9214 8.48559 15.887 5.59697 15.1031 4.56899C14.0302 3.16227 12.0129 2.89063 10.6061 3.96347C9.19944 5.03631 8.92779 7.05361 10.0006 8.46041C10.5518 9.18306 11.9993 10.2162 13.4625 11.155L8.66087 9.23436C8.30741 9.09282 7.90659 9.26487 7.76531 9.61816C7.62395 9.97145 7.79582 10.3724 8.14911 10.5137L14.0135 12.8595H4.36322C3.57809 12.8595 2.93941 13.4981 2.93941 14.2833V26.776C2.93941 27.1565 3.24784 27.465 3.62837 27.465C4.00881 27.465 4.31733 27.1565 4.31733 26.776V14.2833C4.31733 14.2579 4.33787 14.2374 4.36322 14.2374H30.8183C30.8437 14.2374 30.8642 14.2579 30.8642 14.2833V26.7762C30.8642 27.1566 31.1726 27.4651 31.5532 27.4651C31.9336 27.4651 32.2421 27.1567 32.2421 26.7762V25.9952H40.3689C40.3697 25.9952 40.3703 25.9954 40.371 25.9954C40.3718 25.9954 40.3725 25.9953 40.3733 25.9953C41.3732 25.996 42.2223 26.6524 42.5138 27.5568H40.3715C39.9911 27.5568 39.6826 27.8653 39.6826 28.2458V29.7155C39.6826 30.9058 40.6509 31.8742 41.8413 31.8742H42.6221V34.9054H40.8207C40.2289 33.1968 38.6046 31.9659 36.6972 31.9659C34.7898 31.9659 33.1654 33.1967 32.5737 34.9054H32.242V29.7154C32.242 29.335 31.9336 29.0265 31.5531 29.0265C31.1726 29.0265 30.8641 29.3349 30.8641 29.7154V34.9054H16.5702C15.9784 33.1967 14.3541 31.9659 12.4468 31.9659C10.5394 31.9659 8.91498 33.1967 8.3233 34.9054H4.36322C4.33787 34.9054 4.31733 34.8848 4.31733 34.8595V33.3438H7.30271C7.68316 33.3438 7.99167 33.0354 7.99167 32.6548C7.99167 32.2743 7.68324 31.9659 7.30271 31.9659H0.688961C0.308516 31.9659 0 32.2743 0 32.6548C0 33.0354 0.30843 33.3438 0.688961 33.3438H2.93949V34.8595C2.93949 35.6446 3.57818 36.2833 4.3633 36.2833H8.08474C8.08457 36.2986 8.08354 36.3138 8.08354 36.3292C8.08354 38.735 10.0409 40.6924 12.4468 40.6924C14.8526 40.6924 16.81 38.735 16.81 36.3292C16.81 36.3137 16.8089 36.2986 16.8088 36.2833H32.3351C32.3349 36.2986 32.3339 36.3138 32.3339 36.3292C32.3339 38.735 34.2913 40.6924 36.6971 40.6924C39.1029 40.6924 41.0603 38.735 41.0603 36.3292C41.0603 36.3137 41.0593 36.2986 41.0591 36.2833H43.311C43.6914 36.2833 43.9999 35.9748 43.9999 35.5943V28.2457C44 26.4312 42.6614 24.9237 40.9198 24.6587ZM14.8586 10.4035C12.141 8.7147 11.3349 7.93774 11.0962 7.62475C10.4841 6.82218 10.6391 5.67122 11.4418 5.05909C11.7727 4.80677 12.1626 4.68483 12.5498 4.68483C13.1017 4.68483 13.6477 4.93284 14.0076 5.40464C14.674 6.27845 15.7177 9.21949 16.4068 11.3388C15.9417 11.065 15.4072 10.7445 14.8586 10.4035ZM18.775 11.3387C19.4641 9.21949 20.5078 6.27854 21.1741 5.40456C21.7863 4.60199 22.9372 4.44704 23.7398 5.05909C24.5425 5.67122 24.6974 6.82218 24.0854 7.62475C23.8467 7.93765 23.0406 8.7147 20.3232 10.4034C19.7746 10.7444 19.2401 11.0649 18.775 11.3387ZM32.2422 17.1767H37.4321C38.2679 17.1767 38.9478 17.8566 38.9478 18.6924V18.7383H32.2422V17.1767ZM32.2422 24.6173V20.1162H38.364L39.4892 24.6173H32.2422ZM12.4468 39.3146C10.8006 39.3146 9.46138 37.9753 9.46138 36.3292C9.46138 34.683 10.8006 33.3438 12.4468 33.3438C14.0929 33.3438 15.4321 34.683 15.4321 36.3292C15.4321 37.9753 14.0929 39.3146 12.4468 39.3146ZM36.6973 39.3146C35.0512 39.3146 33.7119 37.9753 33.7119 36.3292C33.7119 34.683 35.0512 33.3438 36.6973 33.3438C38.3434 33.3438 39.6827 34.683 39.6827 36.3292C39.6827 37.9753 38.3434 39.3146 36.6973 39.3146ZM42.6222 30.4962H41.8413C41.4108 30.4962 41.0605 30.1459 41.0605 29.7153V28.9345H42.6221V30.4962H42.6222Z" fill="#9F3C3C"/>
<path d="M12.4468 34.9055C11.6616 34.9055 11.0229 35.5442 11.0229 36.3293C11.0229 37.1145 11.6616 37.7532 12.4468 37.7532C13.2319 37.7532 13.8706 37.1145 13.8706 36.3293C13.8706 35.5442 13.2319 34.9055 12.4468 34.9055Z" fill="#9F3C3C"/>
<path d="M36.6973 34.9055C35.9121 34.9055 35.2734 35.5442 35.2734 36.3293C35.2734 37.1145 35.9121 37.7532 36.6973 37.7532C37.4824 37.7532 38.1211 37.1145 38.1211 36.3293C38.1211 35.5442 37.4824 34.9055 36.6973 34.9055Z" fill="#9F3C3C"/>
<path d="M28.6137 31.9658H18.3256C17.9452 31.9658 17.6367 32.2742 17.6367 32.6548C17.6367 33.0353 17.9451 33.3437 18.3256 33.3437H28.6137C28.9941 33.3437 29.3027 33.0353 29.3027 32.6548C29.3027 32.2742 28.9942 31.9658 28.6137 31.9658Z" fill="#9F3C3C"/>
<path d="M10.977 29.0266H2.15863C1.77818 29.0266 1.46967 29.335 1.46967 29.7156C1.46967 30.0961 1.7781 30.4045 2.15863 30.4045H10.977C11.3575 30.4045 11.666 30.0961 11.666 29.7156C11.666 29.335 11.3575 29.0266 10.977 29.0266Z" fill="#9F3C3C"/>
<path d="M10.9771 18.7383H8.03759C7.65715 18.7383 7.34863 19.0467 7.34863 19.4272V25.3061C7.34863 25.6866 7.65706 25.9951 8.03759 25.9951C8.41813 25.9951 8.72655 25.6867 8.72655 25.3061V23.0556H10.2422C10.6227 23.0556 10.9312 22.7472 10.9312 22.3667C10.9312 21.9861 10.6228 21.6777 10.2422 21.6777H8.72655V20.1162H10.9771C11.3575 20.1162 11.666 19.8078 11.666 19.4272C11.666 19.0468 11.3575 18.7383 10.9771 18.7383Z" fill="#9F3C3C"/>
<path d="M16.3988 23.3787C17.0883 22.9271 17.5449 22.1483 17.5449 21.2644C17.5449 19.8715 16.4118 18.7383 15.0188 18.7383H13.1816C12.8012 18.7383 12.4927 19.0467 12.4927 19.4272V25.3061C12.4927 25.6866 12.8011 25.9951 13.1816 25.9951C13.5622 25.9951 13.8706 25.6867 13.8706 25.3061V23.7905H15.0175L16.2827 25.6882C16.4155 25.8873 16.6338 25.9951 16.8565 25.9951C16.9879 25.9951 17.1206 25.9576 17.238 25.8793C17.5547 25.6683 17.6402 25.2405 17.429 24.924L16.3988 23.3787ZM15.0188 22.4126H13.8706V20.1162H15.0188C15.652 20.1162 16.167 20.6312 16.167 21.2644C16.167 21.8976 15.652 22.4126 15.0188 22.4126Z" fill="#9F3C3C"/>
<path d="M22.0002 24.6173H19.7496V23.0534C19.7648 23.0544 19.78 23.0557 19.7955 23.0557H21.2652C21.6457 23.0557 21.9542 22.7473 21.9542 22.3667C21.9542 21.9862 21.6457 21.6778 21.2652 21.6778H19.7955C19.78 21.6778 19.7648 21.6791 19.7496 21.6801V20.1162H22.0002C22.3806 20.1162 22.6891 19.8078 22.6891 19.4272C22.6891 19.0468 22.3807 18.7383 22.0002 18.7383H19.0607C18.6802 18.7383 18.3717 19.0467 18.3717 19.4272V25.3061C18.3717 25.6866 18.6801 25.9951 19.0607 25.9951H22.0002C22.3806 25.9951 22.6891 25.6867 22.6891 25.3061C22.6891 24.9256 22.3806 24.6173 22.0002 24.6173Z" fill="#9F3C3C"/>
<path d="M27.1442 24.6173H24.8937V23.0557H25.6745C26.0549 23.0557 26.3635 22.7473 26.3635 22.3667C26.3635 21.9862 26.055 21.6778 25.6745 21.6778H24.8937V20.1162H27.1442C27.5247 20.1162 27.8332 19.8078 27.8332 19.4272C27.8332 19.0468 27.5247 18.7383 27.1442 18.7383H24.2047C23.8243 18.7383 23.5157 19.0467 23.5157 19.4272V25.3061C23.5157 25.6866 23.8242 25.9951 24.2047 25.9951H27.1442C27.5247 25.9951 27.8332 25.6867 27.8332 25.3061C27.8332 24.9256 27.5247 24.6173 27.1442 24.6173Z" fill="#9F3C3C"/>
</svg>
