<svg width="43" height="44" viewBox="0 0 43 44" fill="none" xmlns="http://www.w3.org/2000/svg">
<path d="M40.6339 8.34944H29.3433L30.3312 7.44428C30.4038 7.37784 30.4687 7.30346 30.5251 7.22247C31.9688 5.15123 31.4965 2.26435 29.4721 0.787099C28.5067 0.0827228 27.2907 -0.164661 26.1358 0.109181C24.9807 0.382729 23.9946 1.15134 23.4299 2.21775L21.5001 5.86296L19.5703 2.21775C19.0056 1.15119 18.0193 0.382436 16.8644 0.109034C15.7092 -0.164661 14.4932 0.0825759 13.5281 0.786952C11.504 2.2642 11.0315 5.15109 12.475 7.22232C12.5316 7.30346 12.5967 7.37784 12.669 7.44413L13.6568 8.3493H2.36657C1.63827 8.3493 1.04787 8.95343 1.04787 9.69866V18.2541C1.04787 18.9993 1.63827 19.6034 2.36657 19.6034H2.71593V42.6506C2.71593 43.3958 3.30633 44 4.03463 44H38.9658C39.6941 44 40.2845 43.3958 40.2845 42.6506V19.6034H40.6339C41.3622 19.6034 41.9526 18.9993 41.9526 18.2541V9.69881C41.9526 8.95357 41.3621 8.34944 40.6339 8.34944ZM25.749 3.50318C25.9567 3.11057 26.3053 2.83893 26.7305 2.73825C26.8457 2.7109 26.9611 2.69753 27.0754 2.69753C27.3831 2.69753 27.6818 2.79513 27.9408 2.98416C28.3479 3.28123 28.6173 3.72249 28.6999 4.22725C28.7754 4.6888 28.6861 5.15226 28.4484 5.54678L25.3894 8.34944H23.1834L25.749 3.50318ZM14.3002 4.2274C14.3827 3.72293 14.6523 3.28137 15.0596 2.98431C15.4148 2.72502 15.8443 2.63756 16.2698 2.73839C16.6949 2.83893 17.0435 3.11072 17.2514 3.50333L19.817 8.34944H17.6109L14.5518 5.54678C14.314 5.15241 14.2248 4.68866 14.3002 4.2274ZM16.5927 41.3014H5.35319V19.6036H16.5927V41.3014ZM23.77 41.3014H19.2301V19.6036H23.77V41.3014ZM37.6471 41.3014H26.4076V19.6036H37.6471V41.3014ZM39.3152 16.9049H3.68513V11.0482H39.3151V16.9049H39.3152Z" fill="#9F3C3C"/>
</svg>
