<svg width="0" height="0" fill="none" style="visibility: hidden; position: absolute;" aria-hidden="true">
    <symbol id="24" data-name="Layer 1" xmlns="http://www.w3.org/2000/svg" viewBox="0 0 120.39 122.88">
        <path d="M110.82,30a4.54,4.54,0,0,0-7.63,4.91,50.2,50.2,0,0,1,3.92,7.34,4.53,4.53,0,0,0,8.32-3.61A59.17,59.17,0,0,0,110.82,30ZM31.07,81.65V73.82l11.73-12a20.88,20.88,0,0,0,1.88-2.08,9.8,9.8,0,0,0,1.2-1.88A4.31,4.31,0,0,0,46.31,56a3.41,3.41,0,0,0-.41-1.75,2.25,2.25,0,0,0-1.24-1,6.5,6.5,0,0,0-2.16-.31H31.68V45.12q2.49-.55,5.56-1a46.81,46.81,0,0,1,7.14-.48,16.58,16.58,0,0,1,7,1.22,7.28,7.28,0,0,1,3.65,3.6,14,14,0,0,1,1.09,5.85,14.6,14.6,0,0,1-.66,4.52,14.45,14.45,0,0,1-1.9,3.81,27.18,27.18,0,0,1-3,3.55l-6.5,6.66h13.1v8.84Zm46.66,0v-7H62L60.3,70.27,71.23,43.9h10L72,66.36h5.69V60.77l1.88-4.88h8V66.36h3v6.8l-3,1.53v7Zm25.2-65.24a5.51,5.51,0,0,1,.33,1.57,5.05,5.05,0,0,1-3.52,5.62L86.27,27.72a5,5,0,0,1-2.92-9.65l1.28-.39a50.55,50.55,0,0,0-10.19-4.19A51.17,51.17,0,1,0,60.22,113.81a35.52,35.52,0,0,0,4-.13,48,48,0,0,0,5.73-.75,4.54,4.54,0,1,1,1.7,8.91,59.3,59.3,0,0,1-6.78.88c-.69,0-3.91.16-4.63.16A60.23,60.23,0,1,1,89.71,10.16l-1.26-3.3a5.06,5.06,0,1,1,9.45-3.6l5,13.15Zm-17.4,90.85a4.53,4.53,0,0,0,4.45,7.9,55.69,55.69,0,0,0,8.12-5.5,4.54,4.54,0,1,0-5.7-7.06,46.89,46.89,0,0,1-6.87,4.66Zm17.87-17a4.53,4.53,0,1,0,7.69,4.8,61.14,61.14,0,0,0,4.51-8.69,4.54,4.54,0,1,0-8.37-3.5,51.73,51.73,0,0,1-3.83,7.39Zm7.77-23.54a4.53,4.53,0,0,0,9,.7,61.54,61.54,0,0,0,0-9.79,4.54,4.54,0,1,0-9,.76,52.65,52.65,0,0,1,0,8.33Z"/>
    </symbol>
    <symbol id="box" data-name="Layer 1" xmlns="http://www.w3.org/2000/svg" viewBox="0 0 101.94 122.88">
        <defs>
            <style>
                .cls-1__box {
                    fill-rule: evenodd;
                }
            </style>
        </defs>
        <path class="cls-1__box" d="M93.34,7.49a3.11,3.11,0,0,1,2,.38,3.06,3.06,0,0,1,1.82,2.78l.2,28.16,0,0,0,0h0l0,0,0,0h0l0,0,0,0h0l0,0,0,0h0l0,0,0,0h-.09l0,0h0l0,0h-.09l0,0h0l0,0h-.05l0,0h0l-.05,0h0l0,0h-.05l0,0H95.8l0,0H91.82l0,0h-.09l-.09,0h0l-.09,0h-.09l0,0h0l0,0-.16-22.52-19,12V70.08a45.77,45.77,0,0,1-4.91,3l-1.21-1.82V28.7L41.4,25.57l-.91,26.52-9.83-6.71-9.84,5.56,2-27.74L6.12,21.07V77.91l39.5,4.39-1.19,6L2.91,83.71A3.06,3.06,0,0,1,0,80.65v-63a3.08,3.08,0,0,1,1.83-2.86L34.79.25A3.07,3.07,0,0,1,36.42,0L93.34,7.49ZM48.7,114.27l8.19-41.61,8.3,12.51C83.07,78,93.11,66.16,94.6,47.94c14.69,25.68,5.77,48.7-12.84,62.18l8.47,12.76L48.7,114.27ZM64.61,9.88l-18,10.21,21.82,2.78L84.85,12.53,64.61,9.88ZM27.68,17.67,45.14,7.32,36.48,6.19,14.25,16l13.43,1.71Z"/>
    </symbol>
    <symbol id="card" xmlns="http://www.w3.org/2000/svg" x="0px" y="0px" viewBox="0 0 117.34 122.88" style="enable-background:new 0 0 117.34 122.88" xml:space="preserve">
        <style>
            .st0__card {
                fill-rule: evenodd;
                clip-rule: evenodd;
            }
        </style>
        <g>
            <path class="st0__card" d="M85.14,14.83L43.26,40.28h11.91l30.92-18.79l4.54-2.76l13.09,21.55h7.62c1.66,0,3.16,0.68,4.25,1.76l0,0 c1.09,1.09,1.77,2.59,1.77,4.24v70.59c0,1.65-0.68,3.15-1.76,4.23v0.01c-1.09,1.09-2.59,1.76-4.25,1.76l-105.33,0 c-1.66,0-3.16-0.67-4.25-1.76v-0.01C0.68,120.02,0,118.52,0,116.88V46.28c0-1.65,0.68-3.16,1.76-4.24 c1.09-1.09,2.59-1.76,4.25-1.76h2.5L73.53,0.77v0C74.36,0.27,75.3,0,76.27,0c0.42,0,0.84,0.05,1.25,0.15 c1.36,0.33,2.54,1.19,3.26,2.39v0l6.63,10.91L85.14,14.83L85.14,14.83L85.14,14.83z M5.89,45.62c-0.23,0.25-0.42,0.53-0.56,0.84 v8.69h106.68v-8.87c0-0.19-0.07-0.36-0.19-0.47h-0.01c-0.12-0.12-0.29-0.2-0.48-0.2H6.01C5.97,45.61,5.93,45.61,5.89,45.62 L5.89,45.62z M15.98,84.71h19.05v7.13H15.98V84.71L15.98,84.71z M15.98,101.59h53.25v6.43H15.98V101.59L15.98,101.59z M86.21,84.71 h19.05v7.13H86.21V84.71L86.21,84.71z M62.8,84.71h19.05v7.13H62.8V84.71L62.8,84.71z M39.39,84.71h19.05v7.13H39.39V84.71 L39.39,84.71z M112.01,75.14H5.33v41.73c0,0.19,0.07,0.36,0.2,0.48l0.01,0c0.13,0.13,0.3,0.2,0.47,0.2l105.33,0 c0.18,0,0.35-0.08,0.48-0.2l0,0c0.13-0.13,0.2-0.3,0.2-0.48v0V75.14L112.01,75.14z"/>
        </g>
    </symbol>
    <symbol id="check" xmlns="http://www.w3.org/2000/svg" x="0px" y="0px" viewBox="0 0 122.88 121.86" style="enable-background:new 0 0 122.88 121.86" xml:space="preserve">
        <!-- <style>
            .st0__check {
                fill-rule: evenodd;
                clip-rule: evenodd;
            }
        </style> -->
        <g>
            <path class="st0__check" d="M61.44,0.01c3.27-0.14,5.85,1,8.45,2.65c3.3,2.09,7.02,6.23,11.61,8.85c6.45,3.69,18.41-1.4,24.53,7.7 c3.57,5.3,3.74,9.46,4,13.57c0.29,4.43,1.06,8.51,5.6,14.51c7.51,9.93,9.07,16.54,5.2,23.43c-2.64,4.7-8.19,7.31-9.48,10.28 c-2.73,6.33,0.29,11.1-3.45,18.48c-2.6,5.12-6.61,8.49-11.95,10.21c-4.5,1.45-9.03-0.65-12.63,0.87 c-6.34,2.66-11.01,8.85-16.06,10.42c-1.95,0.6-3.89,0.9-5.82,0.89c-1.94,0.01-3.88-0.28-5.82-0.89 c-5.04-1.57-9.72-7.75-16.06-10.42c-3.61-1.52-8.13,0.58-12.63-0.87c-5.34-1.72-9.35-5.09-11.95-10.21 C11.23,92.1,14.26,87.33,11.52,81c-1.29-2.97-6.84-5.58-9.48-10.28c-3.87-6.89-2.3-13.5,5.2-23.43c4.54-6,5.31-10.08,5.6-14.51 c0.27-4.11,0.43-8.27,4-13.57c6.12-9.1,18.08-4.01,24.53-7.7c4.59-2.62,8.3-6.76,11.61-8.85C55.59,1.01,58.17-0.13,61.44,0.01 L61.44,0.01z M50.83,53.9l7.86,7.48l13.53-13.75c1.34-1.36,2.18-2.45,3.83-0.75l5.36,5.49c1.76,1.74,1.67,2.76,0.01,4.38 L61.75,76.06c-3.5,3.43-2.89,3.64-6.44,0.12L41.81,62.75c-0.74-0.8-0.66-1.61,0.15-2.41l6.22-6.45 C49.11,52.91,49.86,52.97,50.83,53.9L50.83,53.9z M61.26,27.57c18.95,0,34.3,15.36,34.3,34.3c0,18.95-15.36,34.3-34.3,34.3 c-18.95,0-34.3-15.36-34.3-34.3C26.96,42.92,42.32,27.57,61.26,27.57L61.26,27.57z"/>
        </g>
    </symbol>
</svg>